<svg width="48" height="48" viewBox="0 0 48 48" fill="none" xmlns="http://www.w3.org/2000/svg">
<g id="Apple">
<g id="Apple_2">
<rect id="Rectangle" width="48" height="48" rx="24" fill="#888888"/>
<path id="Vector" d="M24.1903 16.7447C23.0053 16.7447 21.171 15.3974 19.2393 15.4461C16.6907 15.4785 14.3531 16.9233 13.0383 19.2121C10.3923 23.806 12.3565 30.5914 14.9375 34.325C16.2037 36.1431 17.6971 38.1884 19.6776 38.1235C21.5768 38.0423 22.2911 36.8898 24.5961 36.8898C26.885 36.8898 27.5343 38.1235 29.5472 38.0748C31.5925 38.0423 32.8912 36.2242 34.1411 34.3899C35.5858 32.2796 36.1865 30.2343 36.2189 30.1206C36.1702 30.1044 32.2419 28.5947 32.1932 24.0495C32.1607 20.251 35.2937 18.4329 35.4398 18.3518C33.6541 15.7383 30.9108 15.4461 29.953 15.3811C27.4531 15.1863 25.3591 16.7447 24.1903 16.7447ZM28.4109 12.9137C29.466 11.6476 30.164 9.87816 29.9692 8.125C28.4596 8.18993 26.6415 9.13144 25.5539 10.3976C24.5799 11.5177 23.7358 13.3195 23.9631 15.0402C25.635 15.1701 27.3557 14.1799 28.4109 12.9137Z" fill="white"/>
</g>
</g>
</svg>
